/* XPM */
static char *result[] = {
/* columns rows colors chars-per-pixel */
"32 32 102 2 ",
"   c white",
".  c black",
"X  c #004472",
"o  c #1285C8",
"O  c #1CAEDF",
"+  c #47D3F9",
"@  c #2376A8",
"#  c #11C7F0",
"$  c #0DB8EA",
"%  c #0FA4DD",
"&  c #8DDAE9",
"*  c #E5E9E7",
"=  c #BACCD2",
"-  c #14D0F3",
";  c #00559C",
":  c #0DAAE3",
">  c #D6D6DD",
",  c #E5EEF2",
"<  c #E8F2F1",
"1  c #EFF0EB",
"2  c #79D8F9",
"3  c #189FD7",
"4  c #D1C0C0",
"5  c #EBF7F8",
"6  c #E07C94",
"7  c #CB3C58",
"8  c #63494E",
"9  c #FFEC2E",
"0  c #FFEB0B",
"q  c #FFF00C",
"w  c #FEEA0B",
"e  c #FFEA2F",
"r  c #A6BFC5",
"t  c #EAD8C2",
"y  c #E67B47",
"u  c #BE0804",
"i  c #C00804",
"p  c #C50904",
"a  c #CB0904",
"s  c #CC0904",
"d  c #F6C510",
"f  c #F8CD12",
"g  c #F2BA00",
"h  c #FFC744",
"j  c #0E7FBF",
"k  c #8A2334",
"l  c #0A77B7",
"z  c #E47A47",
"x  c #BB0804",
"c  c #EFB48A",
"v  c #C60904",
"b  c #FB0D05",
"n  c #FFF400",
"m  c #F8D300",
"M  c #BD0804",
"N  c #DA0B04",
"B  c #FF0E05",
"V  c #F3C597",
"C  c #259BE1",
"Z  c #05257C",
"A  c #F0B58B",
"S  c #DF0B04",
"D  c #BA0703",
"F  c #BC0703",
"G  c #D60A04",
"H  c #F8D7A4",
"J  c #0766B1",
"K  c #EEB489",
"L  c #C20803",
"P  c #FFF6BD",
"I  c #C80904",
"U  c #E89400",
"Y  c #FFE917",
"T  c #F0B98D",
"R  c #CA0804",
"E  c #C30803",
"W  c #BB0703",
"Q  c #FFC242",
"!  c #F7CB12",
"~  c #4EC9F3",
"^  c #F3BB10",
"/  c #E99400",
"(  c #FFC441",
")  c #F6DA99",
"_  c #8EC4BA",
"`  c #199FD7",
"'  c #09A2E1",
"]  c #12CBF1",
"[  c #0FC1EE",
"{  c #0BB0E7",
"}  c #FFEB97",
"|  c #F5D38A",
" . c #D7A159",
".. c #E6D79E",
"X. c #66BDC7",
"o. c #23B0DD",
"O. c #28B1DB",
"+. c #F5D389",
"@. c #3493E4",
"#. c #004681",
"$. c #00295D",
"%. c #1F8DCF",
/* pixels */
"                                                                ",
"                . . . . . . . . . . . . . . . . .               ",
"      . . . . X o O + + O O + + O O O O + O O O o X . . .       ",
"      . @ + + + # $ % o o o o o o % & * * * = & - O O @ .       ",
"      . ; ; O : $ $ $ # - - - - - - - # & * > , & < 1 2 .       ",
"        X O 3 o o : - - - 2         2 - - *   4 5 6 7 8         ",
"        . O o o o O O 2   9 0 q q w e   2 r t t 1 7 7 .         ",
"        . O o o 3 O 2 y u i p a s d f g h   O j 2 7 k .         ",
"          X l o O 2 z x   x x   c v b n m M 2 j ; 2 8           ",
"          . ; l O   x x c x   x   N   B   V   C j Z .           ",
"          . ; ; O   x c x x   x A     B   S   O O o .           ",
"          . ; l O   D   x x c   F G   B B H   O O o .           ",
"          . J o O 2 D     K D D   L   P   I   O O o .           ",
"          . l o O O   U Y Y Y D K   T R E W 2 O O j .           ",
"          . o o 3 O 2 Q Y Y Y ! U D D D D z ~ O 3 ; .           ",
"          . o o o O O   U Y Y ! ^ U U / ( 2 O O j ; .           ",
"          . 3 o o 3 O O 2 U U U / / /   2 O O j ; ; .           ",
"          . O o o o 3 O O 2         2 O O O 3 ; ; ; .           ",
"          . ) ) _ ` o ' 3 O ] ] ] ] ] ] [ { { j ; J .           ",
"          . } } ) _ o o o { [ ] ] ] [ { { { { 3 J J .           ",
"          . } } } ) O 3 o o ' { { { { { { [ [ O j J .           ",
"          . ) } } |  .) _ ` o { { { { [ ] ] O O O J .           ",
"          . _ } }  .| } ..X.o.[ ] ] ] ] ] O O O 3 j .           ",
"          . ;  . .| } } } _ O.O [ ] ] ] [ O O O o o X           ",
"          X J ) +.} } } +._ O O O [ [ O O O 3 j ; j 3 .         ",
"        . J J _ ) +.} } _ o 3 O O O O 3 o o o ; ; ; O .         ",
"        . J o 3 o ; ; o o o j J ; ; ; J j o o ; j J O X         ",
"        X J O O O O 3 J ; ; ; ; ; ; ; ; ; J j O J J J O .       ",
"      . @ @.+ @.@.#.#.#.; #.$.$.$.$.$.#.; #.#.#.%.+ @.@ .       ",
"      . . . . X o O + + O + + + O O O O + O O O o X . . .       ",
"                . . . . . . . . . . . . . . . . .               ",
"                                                                "
};
