/* XPM */
static char *result[] = {
/* columns rows colors chars-per-pixel */
"32 32 24 1 ",
"  c white",
". c black",
"X c #5D2503",
"o c #FDC200",
"O c #FBDF5A",
"+ c #6A5039",
"@ c #690000",
"# c #B12E18",
"$ c #EA981B",
"% c #ED9C22",
"& c #F4E69C",
"* c #FE3602",
"= c #F36F1A",
"- c #FFA12E",
"; c #C93010",
": c #8D0000",
"> c #390000",
", c #AB0F0F",
"< c #D58205",
"1 c #B16800",
"2 c #FEF089",
"3 c #FFFAA6",
"4 c #FFD13A",
"5 c #FDCB00",
/* pixels */
"                                ",
"                                ",
"                                ",
"             ..                 ",
"            XoO.                ",
"          .XoOOX                ",
"        .XoOOOOo.               ",
"       .OOOOOOOOX               ",
"      .OooooOO++o.              ",
"      XooooooO++O.              ",
"     @@###$$##%& o.             ",
"    .*=--=##=*@OOO.             ",
"    .=;:::=*;*>oooX             ",
"     @*;,,:#*><oo1<.....        ",
"      @*;;*:><oo<oOOOOOo...     ",
"      @=-=><oo%<2OOOOOOOOOO.    ",
"       @@@oOOO23OOOOOooOOOo.    ",
"      .<OOOOOOOOoOOOOOOoOo<.    ",
"      .%ooo4OOOoOO22O4o<ooX     ",
"     .<oooooo4O%ooooo4O<o4.     ",
"     .%oooooooo4%oo4O<<oo<.     ",
"     .%oooooooooo%<<<ooo4X      ",
"     .<oooooooooooooooo4<.      ",
"      X5oooooooooooooo4<.       ",
"      .<5ooooooooooooO%.        ",
"       .<455oooooo4O4X.         ",
"        .X<4444OOOX..           ",
"          ........              ",
"                                ",
"                                ",
"                                ",
"                                "
};
