/* XPM */
static char *result[] = {
/* columns rows colors chars-per-pixel */
"32 32 30 1 ",
"  c #02C6D7",
". c #03C8D7",
"X c #08C8D7",
"o c #04C6D9",
"O c #0AC6DA",
"+ c #05CAD9",
"@ c #0BCCDA",
"# c #11C7DB",
"$ c #13CCDB",
"% c #1ACEDC",
"& c #06D2DB",
"* c #0CD3DC",
"= c #07D8DE",
"- c #0DD9DE",
"; c #13D3DD",
": c #1BD3DD",
"> c #14D9DF",
", c #1BD9DF",
"< c #23D5DE",
"1 c #2CD6DF",
"2 c #23D8DF",
"3 c #28D8DF",
"4 c #0DD9E0",
"5 c #13DBE0",
"6 c #1BDAE0",
"7 c #24DAE0",
"8 c #2BDCE2",
"9 c #32DBE1",
"0 c #14E2E3",
"q c #33E2E4",
/* pixels */
"+@-50000673:#X..&---4**44*445;>@",
"+@*>5005,,,:#+++&--*4*4444*>5;*@",
"oo+@*---;$$$X@+++@@;;7776545,;OX",
"oO+++@@**X+XOOOO@@@@#7976555>@+.",
";$X+++X@X@*$%$$X@@@@@$$$*@*@@X.o",
"::*+..+++&$$%<%$O@$@@@++.oo ++.o",
"$$++...++XX$%%%@$::;4**@.o o@+oo",
"OO.......+@$$%$*@:<:5;5@.oo@OXoo",
"@@@OX+.&**:222>@@#$$***&+.+++ooo",
">>$$X +*;,8qq7>XoooooOO@++@+++++",
";;;@++.@*;2882;&++oooooo++@@$$*;",
"**@Xo.oo@@:::;*X@&&Ooooo.+@46726",
"@@Oooo  O#$;$;**&&@oo+@O++O*:7<<",
"o+Oooo o#$$$;*@*@++++@&&+ooO#%%%",
"ooooooo @$$***X&+++++&&&++ooO##%",
"oooooo  X$$**...o&+&&++++++@@@$$",
"@@@O@O@++@+*@O+o++&&@;*@*+@++***",
"677736;**+o&O@+oooO;211,>--++&**",
"6789826;*+oO@@@oooO;<193;-*@.+@*",
"$622:;4@@+OO@*@ooooO$<<:@@@o..++",
"#$$%@+o+.+@@@@4@+ooo@#$$@oOooo+@",
"##$O++o+o+o@@;@@++ooo@@@@*$*@*OO",
"$$OO++..+++@@*-*&@oo+o+@;;6%*4&O",
"#OO +.&.+&+*&*&&&&&+o+o+@#%$OOOo",
"##+..&&&&&*-*&&&&&*XX  XO###oooo",
"X . .&&&**=-*&&.&&**&. .@@@Oo++o",
"+.o .++X***@*;@..X*.&..&**O++@@4",
".+@#@+*X+@@O*@X+.X******4$44=**4",
" #%%:;X. ooOO#OoX*$::>>->>,,65>-",
"O#$$$@+oooooOO#OXX$%:>*-->,,6,>*",
"  ooo o oooO##OOXXX$$@X&X$%::;@&",
" ooo    ooooX##OoXX@XXX.XX$%%;X+"
};
