/* XPM */
static char *result[] = {
/* columns rows colors chars-per-pixel */
"32 32 198 2 ",
"   c white",
".  c #D40000",
"X  c #D80C0C",
"o  c #DA160A",
"O  c #DD2A02",
"+  c #DF2624",
"@  c #E33532",
"#  c #E83134",
"$  c #E95127",
"%  c #F9B706",
"&  c #F38514",
"*  c #DA1614",
"=  c #DB1817",
"-  c #E91D3C",
";  c #EC2445",
":  c #E33937",
">  c #EF7F39",
",  c #F3922C",
"<  c #FFC107",
"1  c #F9AE36",
"2  c #F08F90",
"3  c #F10D4F",
"4  c #F40158",
"5  c #F40156",
"6  c #F0374E",
"7  c #F7DC2D",
"8  c #F7D25E",
"9  c #FDFEFE",
"0  c #D76B6B",
"q  c #F50A52",
"w  c #EB0156",
"e  c #5A0020",
"r  c #351818",
"t  c #3E380B",
"y  c #392F05",
"u  c #423C0C",
"i  c #3A341A",
"p  c #553B3C",
"a  c #37070A",
"s  c #170709",
"d  c black",
"f  c #D9060D",
"g  c #E10924",
"h  c #F0114D",
"j  c #C80048",
"k  c #BA0043",
"l  c #A5003B",
"z  c #410017",
"x  c #0A0505",
"c  c #E83541",
"v  c #FE7DA4",
"b  c #BD476D",
"n  c #620023",
"m  c #663333",
"M  c #7A3D3D",
"N  c #251717",
"B  c #844242",
"V  c #361B1B",
"C  c #81484A",
"Z  c #542C2B",
"A  c #E6514D",
"S  c #FECED3",
"D  c #AD9269",
"F  c #090906",
"G  c #B45E5E",
"H  c #E67677",
"J  c #D4917A",
"K  c #9D9449",
"L  c #C59EA2",
"P  c #3E3838",
"I  c #AF5A5A",
"U  c #F2A7AA",
"Y  c #D4A3A6",
"T  c #2E2831",
"R  c #F7B6BA",
"E  c #B38B8E",
"W  c #554243",
"Q  c #B49A62",
"!  c #817616",
"~  c #837919",
"^  c #F5C6C7",
"/  c #CAA57F",
"(  c #7E7413",
")  c #6A5557",
"_  c #995348",
"`  c #D3696B",
"'  c #EABDC1",
"]  c #8D7F28",
"[  c #C77859",
"{  c #130C12",
"}  c #F8CCCE",
"|  c #DCB1B5",
" . c #F1C5BE",
".. c #AD713A",
"X. c #FBCACF",
"o. c #E4ACAF",
"O. c #FCB4AE",
"+. c #F5A9AD",
"@. c #AD8E51",
"#. c #DD6F6F",
"$. c #E16F70",
"%. c #D39498",
"&. c #4A331A",
"*. c #EB9997",
"=. c #363109",
"-. c #847A16",
";. c #7B4818",
":. c #731F19",
">. c #903A1E",
",. c #BC5829",
"<. c #B57547",
"1. c #B47349",
"2. c #514713",
"3. c #1D2450",
"4. c #171F4B",
"5. c #B16224",
"6. c #F44335",
"7. c #7F7813",
"8. c #716E3F",
"9. c #4054B4",
"0. c #8E832C",
"q. c #C8C399",
"w. c #D2CEAC",
"e. c #E0957A",
"r. c #DB4E2F",
"t. c #C7532A",
"y. c #687A90",
"u. c #428BA5",
"i. c #32979E",
"p. c #2EA28F",
"a. c #1B9ACA",
"s. c #1883BA",
"d. c #3E52B6",
"f. c #908631",
"g. c #E7E5D2",
"h. c #F5F4EC",
"j. c #D2444B",
"k. c #4A82CD",
"l. c #2499F4",
"z. c #36A2F4",
"x. c #18C4DC",
"c. c #5365BD",
"v. c #EF463B",
"b. c #657AB5",
"n. c #348DE0",
"m. c #2992EB",
"M. c #C5E9F8",
"N. c #E6F3F9",
"B. c #B4EBF2",
"V. c #02BDD4",
"C. c #53CCE0",
"Z. c #8A95D4",
"A. c #3D50B9",
"S. c #7B7111",
"D. c #CCC9A1",
"F. c #F42743",
"G. c #5382C7",
"H. c #1E99F9",
"J. c #1E95F4",
"K. c #D9EDFD",
"L. c #7F85A8",
"P. c #232D6A",
"I. c #4D4C3A",
"U. c #6A6117",
"Y. c #2A2708",
"T. c #A85128",
"R. c #2196F3",
"E. c #5BD3E3",
"W. c gray40",
"Q. c #938627",
"!. c #FBE83B",
"~. c #191704",
"^. c #8E6C1C",
"/. c #5478CD",
"(. c #48AFF2",
"). c #57AFF6",
"_. c #27A5D0",
"`. c #6E7DCB",
"'. c #2C3252",
"]. c #A69821",
"[. c #4B440D",
"{. c #7A7427",
"}. c #248AE9",
"|. c #1999EA",
" X c #0BAAD0",
".X c #314297",
"XX c #2C2808",
"oX c #71704F",
"OX c #4252A8",
"+X c #3B5ABC",
"@X c #2F3D89",
"#X c #535F91",
"$X c #3A4BA7",
"%X c #2D7BDB",
"&X c #2885E4",
"*X c #B5A727",
"=X c #FFEF40",
"-X c #534D13",
/* pixels */
"                              . . . . . . . . .                 ",
"                              X X X X X o O o o                 ",
"                      . . . . + @ # @ @ $ % & + * .             ",
"                      X = = = - ; ; : > , < 1 2 : .             ",
"                    . + : : : 3 4 5 6 7 7 % 8 9 0 .             ",
"                . = # - 3 3 q 4 w e r t y u i p r a s d         ",
"              f f g # h 4 j k k l s d d d d d d d d d d d       ",
"            . g 4 4 4 4 5 z x d d d d d d d d d d d d d d d     ",
"            . c v b e n n s d m M s N B m d V C Z               ",
"            X A S D F x d x s G 0 N r H G d Z H                 ",
"        d p 2 J K D L P d B I U Y N T R E x W R Q ! ! ~         ",
"        d W ^ / ( D S ) d _ ` R ' Z W S L N ) S Q ] ] ]         ",
"        d Z 2 [ ( Q S ) d x { L } ' ' } } | ^ S ^  . .^ Q !     ",
"        d N B _ ..J X.) d p ) | } E E o.U O.+.U +.+.+.+.@.!     ",
"        d d d Z #.2 X.) F L S } | N N 0 $.$.#.#.$.$.#.#...!     ",
"          d d s V ) 2 %.L ^ S ) T x x V V V V V V V V V &.      ",
"            d d d Z [ *.R R R W r x d d d d d d d d d d         ",
"                d =.-.[ H H H $.` s d d d d d d d d             ",
"  ! ~ ! ! ! -.;.:.>.,...<.<.1.<.1.2.t t i 3.4.                  ",
"! ~ ~ ~ ~ -.~ 5.6.6.6.5.-.-.7.7.( ~ 7.-.8.9.9.                  ",
"! 0.q.w.w.w.w.e.6.6.6.r.t.t.t.y.u.u.i.p.i.a.s.d.                ",
"! f.g.h.9 9 9 O.6.6.6.6.6.j.j.k.l.l.z.x.x.x.a.c.                ",
"    f.K h.9 9 O.6.6.6.6.v.b.n.m.z.M.N.N.B.V.C.N.Z.A.4.d d d     ",
"    S.f.q.D.D.e.F.F.F.# v.G.H.J.z.K.9 9 B.x.C.9 L.P.I.U.Y.d     ",
"        ( ! ! T.5 w w F.v.G.J.R.z.K.9 9 B.V.E.N.W.d Q.!.U.d d d ",
"        ~.u ! ^.T.W././.G.m.R.R.l.(.).).z.x._.`.'.d U.].[.d d d ",
"        d Y.! {.{.y.J.}.m.J.J.R.R.R.J.R.|. Xs..X3.~.u U.XXd d d ",
"        d Y.! oXOX9.+X+X+X}.J.R.R.R.|.l.m.+X@X{ [.S.=.x d d     ",
"        d XX! oXy.#X@X$Xd.%X&X&X&X&X&X&X%X9.P.d [.-.=.d d d     ",
"        d XX! *X=XQ.x     d.d.d.9.d.d.d.d.    d 2.-.=.d d d     ",
"          ~.=.[.U.-X                            Y.=.~.d d       ",
"            d d d d                             d d d d         "
};
